<?xml version="1.0" encoding="UTF-8" standalone="no"?>
<!-- Creator: CorelDRAW -->

<svg
   xmlns:dc="http://purl.org/dc/elements/1.1/"
   xmlns:cc="http://creativecommons.org/ns#"
   xmlns:rdf="http://www.w3.org/1999/02/22-rdf-syntax-ns#"
   xmlns:svg="http://www.w3.org/2000/svg"
   xmlns="http://www.w3.org/2000/svg"
   xmlns:sodipodi="http://sodipodi.sourceforge.net/DTD/sodipodi-0.dtd"
   xmlns:inkscape="http://www.inkscape.org/namespaces/inkscape"
   xml:space="preserve"
   width="32.1936mm"
   height="31.7482mm"
   style="shape-rendering:geometricPrecision; text-rendering:geometricPrecision; image-rendering:optimizeQuality; fill-rule:evenodd; clip-rule:evenodd"
   viewBox="0 0 1454.84 1434.71"
   version="1.1"
   id="svg40"
   sodipodi:docname="logo-trackula-transparent-3.svg"
   inkscape:version="0.92+devel unknown"><metadata
     id="metadata44"><rdf:RDF><cc:Work
         rdf:about=""><dc:format>image/svg+xml</dc:format><dc:type
           rdf:resource="http://purl.org/dc/dcmitype/StillImage" /></cc:Work></rdf:RDF></metadata><sodipodi:namedview
     pagecolor="#ffffff"
     bordercolor="#666666"
     inkscape:document-rotation="0"
     borderopacity="1"
     objecttolerance="10"
     gridtolerance="10"
     guidetolerance="10"
     inkscape:pageopacity="0"
     inkscape:pageshadow="2"
     inkscape:window-width="1920"
     inkscape:window-height="1009"
     id="namedview42"
     showgrid="false"
     inkscape:zoom="5.8086627"
     inkscape:cx="21.758736"
     inkscape:cy="59.996597"
     inkscape:window-x="0"
     inkscape:window-y="34"
     inkscape:window-maximized="1"
     inkscape:current-layer="svg40" /><defs
     id="defs4"><style
       type="text/css"
       id="style2"><![CDATA[
    .str1 {stroke:#E6E7E8;stroke-width:9.03807}
    .str0 {stroke:black;stroke-width:47.8249}
    .fil0 {fill:none}
    .fil2 {fill:#373435}
    .fil3 {fill:#E6E7E8}
    .fil1 {fill:black}
   ]]></style></defs><ellipse
     id="ellipse7"
     ry="693.44202"
     rx="703.50598"
     cy="717.35602"
     cx="727.41901"
     class="fil0 str0"
     style="stroke:#3c3c3c;stroke-opacity:1" /><g
     id="g4333"
     style="fill:#3c3c3c;fill-opacity:1"><path
       style="fill:#3c3c3c;fill-opacity:1"
       class="fil1"
       d="m 759.586,302.635 c -0.7592,-34.1368 5.25112,-59.1632 35.9896,-66.2897 68.6848,-15.9206 85.3148,81.1709 29.9702,98.8313 -42.0903,13.4306 -56.1806,-17.6333 -67.4466,-27.9547 0.99871,47.4408 15.9296,251.29 -2.22336,273.56 -9.11941,27.2769 -149.725,263.527 -179.225,317.214 -9.03807,16.4493 -18.3744,28.7772 -27.5932,46.9528 18.6998,-7.6688 35.8947,-21.6914 63.8268,-8.49127 16.2685,7.6914 30.2143,26.8973 27.7875,52.3711 -2.71142,28.40207 -36.3285,68.45877 -90.3445,29.32847 -6.17752,-4.4738 -0.12201,-1.0529 -9.07874,-6.1007 17.3124,66.249 33.0251,134.893 48.6338,202.191 l 34.8463,147.659 c 5.44996,24.1 3.19948,28.8857 15.4461,41.0102 l 4.66816,3.9 c 21.3479,0 22.4325,3.5067 42.6732,4.1123 17.7688,0.5332 36.907,-0.1311 54.8385,-0.1311 -6.85086,-51.3633 -59.5473,-253.807 -78.1115,-330.224 -7.31632,-30.1148 -26.3143,-81.02177 -12.2601,-107.24997 33.0658,-61.6939 182.926,-308.862 197.644,-347.31 -23.4538,7.04066 -39.9076,14.7546 -63.637,-1.84377 -16.9825,-11.8851 -26.4906,-31.1587 -17.1588,-59.9043 8.45963,-26.0568 47.8159,-59.936 95.4601,-5.77984 l 4.41058,4.75402 -1.19303,-39.894 c -11.5823,-158.148 -0.7366,-327.268 -12.929,-485.543002 -5.22852,-3.42995 0.19884,-0.817945 -8.58165,-3.19496 -20.6384,-5.58553 -72.1916,-8.74433 -94.493,-8.74433 l 4.83989,210.926002 c 1.0439,45.0864 -7.28468,48.4169 3.24015,65.8468 z"
       id="path9"
       inkscape:connector-curvature="0" /><path
       style="fill:#3c3c3c;fill-opacity:1"
       class="fil1"
       d="m 1021.6,298.957 5.1698,-9.23239 c 8.2382,-15.4596 15.6223,-31.466 46.8624,-31.692 77.0269,-0.5468 62.0237,121.445 -14.1446,100.924 -6.2995,-1.69916 -9.7657,-3.8457 -13.8599,-6.33117 l -13.1685,-9.34084 c 11.9664,34.313 60.8714,133.696 62.6474,158.085 10.1678,9.32729 71.7487,163.431 82.9469,188.683 15.4732,34.8915 -2.49,73.1496 -11.6456,109.691 -8.9974,35.9037 -18.8579,74.0308 -28.3569,110.111 16.4402,-9.5442 35.8088,-26.4138 63.158,-16.49 19.8114,7.18526 36.8663,25.641 32.3834,55.8959 -5.0342,33.9741 -48.9683,75.9604 -100.065,14.4654 -0.4474,-0.53325 -1.297,-1.65397 -2.0381,-2.39509 l -1.2066,298.40499 c 1.4732,10.2537 -1.6901,-2.6391 1.6088,7.3118 3.3576,10.1091 -0.9219,2.7205 5.4183,9.5894 9.7476,-3.9858 40.8159,-29.9431 50.559,-38.1361 13.3131,-11.1982 36.5861,-33.3866 44.5215,-46.5867 13.6023,-65.3136 -6.0465,-174.706 6.1369,-246.662 9.8243,-58.0289 32.1123,-145.874 49.9715,-202.069 -16.6798,10.4119 -33.956,25.641 -61.8475,17.4977 -43.5951,-12.7256 -49.7952,-78.0663 -4.8354,-97.2315 25.8534,-11.0219 45.1135,2.21433 62.322,10.9541 l -81.555,-194.834 c -19.9109,-35.854 -43.437,-99.5498 -60.2071,-140.203 -17.2672,-41.8508 -15.2608,-38.4841 -8.437,-86.4491 3.9677,-27.8689 11.031,-60.8081 11.3383,-87.7642 -9.7205,-13.2363 -73.7597,-51.0651 -92.5543,-59.6964 l -31.1226,193.501 z"
       id="path11"
       inkscape:connector-curvature="0" /><g
       style="fill:#3c3c3c;fill-opacity:1"
       id="g4324"><path
         style="fill:#3c3c3c;fill-opacity:1"
         inkscape:connector-curvature="0"
         id="path13"
         d="m 271.553,559.841 c 18.7721,-7.62813 40.2013,-16.7024 62.2407,-5.12007 18.0084,9.46738 27.3582,24.0503 25.8489,52.3078 3.84118,-3.43447 2.75209,-2.31375 6.44866,-7.1943 l 3.41639,-5.0342 c 24.7598,-38.6151 128.327,-231.849 154.339,-279.24 16.0471,-29.2336 41.9186,-70.3523 53.6364,-100.192 -21.6191,9.83794 -41.4576,19.5584 -65.7429,2.255 -18.2298,-12.9967 -22.5816,-31.9179 -19.4409,-59.3575 l -13.5435,24.9993 c -4.10328,8.02129 -9.29113,17.4299 -13.9005,25.641 -10.4616,18.6275 -17.9089,30.9735 -27.3402,48.444 -18.2162,33.7436 -37.517,69.218 -55.2226,100.02 -16.3589,28.4609 -104.078,186.026 -110.739,202.471 z"
         class="fil1" /><path
         style="fill:#3c3c3c;fill-opacity:1"
         inkscape:connector-curvature="0"
         id="path15"
         d="m 87.6919,977.011 c 2.9916,23.8741 54.8023,119.56 75.7752,139.29 7.91283,-14.1581 57.2065,-276.036 61.1109,-310.557 -7.48804,4.46029 -2.3499,1.46417 -8.15234,5.92445 -37.5848,28.8857 -79.7835,22.6539 -89.9423,-35.366 l -38.7914,200.708 z"
         class="fil2" /><path
         style="fill:#3c3c3c;fill-opacity:1"
         inkscape:connector-curvature="0"
         id="path17"
         d="m 152.142,727.33 c 52.6106,-7.72755 89.025,12.8386 72.2096,70.3162 9.44478,-7.24401 61.8882,-80.1857 72.8333,-95.7719 4.71335,-6.71528 6.33117,-9.98255 11.0807,-16.4764 l 12.4273,-13.2001 c 0.5694,-0.50161 1.69012,-1.41446 2.58941,-2.05616 2.68883,-10.5158 8.62232,-16.3318 17.3666,-26.6939 -51.1193,18.3111 -90.9139,-1.07101 -81.198,-61.3188 -12.9154,9.70237 -43.2698,54.7662 -54.8294,70.9262 -12.2014,17.0503 -45.3801,56.619 -52.4795,74.2748 z"
         class="fil2" /><path
         style="fill:#3c3c3c;fill-opacity:1"
         inkscape:connector-curvature="0"
         id="path19"
         d="m 506.06,61.6803 -11.2117,84.9172 c 1.00323,-0.61459 2.37249,-2.89218 2.84699,-2.08327 l 10.1723,-8.09359 c 4.07165,-3.23111 7.5739,-6.72884 14.7411,-9.41767 29.9657,-11.2298 74.189,0.51517 67.6183,61.0702 9.70689,-10.6288 4.99353,-11.641 7.27113,-38.6784 l 14.5332,-96.5401 c -0.37056,-22.3285 5.42736,-11.4783 -7.93542,-16.4764 -38.0412,5.29179 -66.3304,16.3589 -98.0359,25.3021 z"
         class="fil2" /></g></g><circle
     id="circle21"
     r="51.436699"
     cy="772.25098"
     cx="180.842"
     class="fil3 str1" /><circle
     id="circle23"
     r="51.436699"
     cy="601.14398"
     cx="306.17001"
     class="fil3 str1" /><circle
     id="circle25"
     r="51.436699"
     cy="309.45099"
     cx="1075.78"
     class="fil3 str1" /><circle
     id="circle27"
     r="51.436699"
     cy="173.591"
     cx="537.45001"
     class="fil3 str1" /><circle
     id="circle29"
     r="51.436699"
     cy="291.21301"
     cx="807.44501"
     class="fil3 str1" /><circle
     id="circle31"
     r="58.598598"
     cy="581.59601"
     cx="813.276"
     class="fil3 str1" /><circle
     id="circle33"
     r="54.0392"
     cy="981.36798"
     cx="596.64301"
     class="fil3 str1" /><circle
     id="circle35"
     r="51.436699"
     cy="944.91602"
     cx="1183.1801"
     class="fil3 str1" /><circle
     id="circle37"
     r="51.436699"
     cy="707.91998"
     cx="1235.27"
     class="fil3 str1" /></svg>