<?xml version="1.0" encoding="UTF-8" standalone="no"?>
<!-- Creator: CorelDRAW -->

<svg
   xmlns:dc="http://purl.org/dc/elements/1.1/"
   xmlns:cc="http://creativecommons.org/ns#"
   xmlns:rdf="http://www.w3.org/1999/02/22-rdf-syntax-ns#"
   xmlns:svg="http://www.w3.org/2000/svg"
   xmlns="http://www.w3.org/2000/svg"
   xmlns:sodipodi="http://sodipodi.sourceforge.net/DTD/sodipodi-0.dtd"
   xmlns:inkscape="http://www.inkscape.org/namespaces/inkscape"
   xml:space="preserve"
   width="31.3352mm"
   height="30.8898mm"
   style="shape-rendering:geometricPrecision; text-rendering:geometricPrecision; image-rendering:optimizeQuality; fill-rule:evenodd; clip-rule:evenodd"
   viewBox="0 0 268.453 264.637"
   version="1.1"
   id="svg25"
   sodipodi:docname="logo-trackula-charcoal.svg"
   inkscape:version="0.92+devel unknown"><metadata
     id="metadata29"><rdf:RDF><cc:Work
         rdf:about=""><dc:format>image/svg+xml</dc:format><dc:type
           rdf:resource="http://purl.org/dc/dcmitype/StillImage" /></cc:Work></rdf:RDF></metadata><sodipodi:namedview
     pagecolor="#ffffff"
     bordercolor="#666666"
     inkscape:document-rotation="0"
     borderopacity="1"
     objecttolerance="10"
     gridtolerance="10"
     guidetolerance="10"
     inkscape:pageopacity="0"
     inkscape:pageshadow="2"
     inkscape:window-width="1764"
     inkscape:window-height="888"
     id="namedview27"
     showgrid="false"
     inkscape:zoom="5.9700804"
     inkscape:cx="25.28465"
     inkscape:cy="58.374424"
     inkscape:window-x="0"
     inkscape:window-y="34"
     inkscape:window-maximized="0"
     inkscape:current-layer="svg25" /><defs
     id="defs4"><style
       type="text/css"
       id="style2"><![CDATA[
    .str0 {stroke:#E6E7E8;stroke-width:1.71343}
    .fil0 {fill:#D2D3D5}
    .fil2 {fill:#E6E7E8}
    .fil1 {fill:#7C7C7C}
   ]]></style></defs><ellipse
     id="_348816584"
     class="fil0 str0"
     cx="134.226"
     cy="132.319"
     rx="133.37"
     ry="131.46201" /><path
     id="_348816536"
     class="fil1"
     d="m 140.325,53.6963 c -0.14393,-6.47162 0.9955,-11.2161 6.82288,-12.5671 13.0212,-3.01821 16.1739,15.3883 5.68173,18.7364 -7.97944,2.54616 -10.6507,-3.3429 -12.7865,-5.29964 0.18933,8.99379 3.01992,47.6393 -0.4215,51.8612 -1.72885,5.17113 -28.3847,49.9593 -33.9773,60.1371 -1.71343,3.11844 -3.4834,5.45556 -5.2311,8.90127 3.54509,-1.45384 6.80489,-4.11223 12.1002,-1.60977 3.08417,1.45813 5.728,5.09917 5.26794,9.92847 -0.51403,5.38445 -6.88713,12.9784 -17.1274,5.56008 -1.171134,-0.84815 -0.0231,-0.19961 -1.721144,-1.15656 3.282074,12.5594 6.260874,25.5729 9.219964,38.3311 l 6.60613,27.9932 c 1.0332,4.56886 0.60655,5.47612 2.92825,7.77469 l 0.88498,0.73935 c 4.04712,0 4.25273,0.66481 8.08996,0.77961 3.3686,0.10109 6.99679,-0.0249 10.3962,-0.0249 -1.29878,-9.73742 -11.2889,-48.1165 -14.8083,-62.6036 -1.38702,-5.70915 -4.98865,-15.36 -2.32427,-20.3324 6.26858,-11.6959 34.679,-58.5539 37.4693,-65.8428 -4.44635,1.33476 -7.56565,2.79717 -12.0643,-0.34954 -3.21953,-2.25316 -5.02206,-5.90705 -3.25295,-11.3566 1.60377,-4.93982 9.0649,-11.3626 18.0972,-1.09574 l 0.83616,0.90126 -0.22618,-7.563076 c -2.19576,-29.9816 -0.13964,-62.0433 -2.45106,-92.0488997 -0.99122,-0.650247 0.0377,-0.155065 -1.6269,-0.605697 -3.91262,-1.0589 -13.686,-1.65774 -17.9139,-1.65774 l 0.91754,39.9871997 c 0.19791,8.54744 -1.38102,9.17884 0.61427,12.4832 z"
     inkscape:connector-curvature="0"
     style="fill:#464646;fill-opacity:1" /><path
     id="_348816872"
     class="fil1"
     d="m 189.997,52.9989 0.98008,-1.75027 c 1.56179,-2.93082 2.96166,-5.96531 8.88413,-6.00814 14.6027,-0.103662 11.7584,23.0234 -2.68152,19.133 -1.19426,-0.322125 -1.85136,-0.729064 -2.62754,-1.20026 l -2.49647,-1.77083 c 2.26858,6.50504 11.5399,25.3459 11.8766,29.9696 1.92761,1.76826 13.6021,30.9831 15.725,35.7704 2.93339,6.61469 -0.47205,13.8676 -2.20775,20.795 -1.70572,6.8066 -3.57507,14.0347 -5.37589,20.8747 3.11673,-1.80938 6.78861,-5.0075 11.9734,-3.12615 3.75584,1.36218 6.98908,4.861 6.13922,10.5967 -0.95438,6.44078 -9.28336,14.4005 -18.9702,2.74234 -0.0848,-0.10109 -0.24588,-0.31356 -0.38638,-0.45406 l -0.22874,56.5714 c 0.27929,1.94389 -0.32041,-0.50032 0.30499,1.38616 0.63654,1.91647 -0.17477,0.51574 1.0272,1.81795 1.84793,-0.75562 7.73785,-5.67659 9.58493,-7.22982 2.52388,-2.12294 6.93596,-6.32941 8.44035,-8.83187 2.57871,-12.3821 -1.14628,-33.1206 1.16342,-46.7621 1.8625,-11.0011 6.08782,-27.6548 9.47355,-38.308 -3.16213,1.97387 -6.43735,4.861 -11.725,3.3172 -8.26473,-2.41251 -9.44014,-14.7997 -0.91668,-18.4331 4.90127,-2.08953 8.55258,0.41979 11.815,2.07668 L 224.3076,87.239031 c -3.77469,-6.79718 -8.23474,-18.8726 -11.414,-26.5796 -3.27351,-7.93404 -2.89313,-7.29578 -1.59949,-16.389 0.75219,-5.28336 2.09124,-11.528 2.1495,-16.6383 -1.84279,-2.50932 -13.9833,-9.68088 -17.5464,-11.3172 l -5.90019,36.6837 z"
     inkscape:connector-curvature="0"
     style="fill:#464646;fill-opacity:1" /><g
     id="g4325"
     style="fill:#464646;fill-opacity:1"><path
       inkscape:connector-curvature="0"
       d="m 47.8038,102.457 c 3.55879,-1.44613 7.62133,-3.16642 11.7995,-0.97066 3.41401,1.79482 5.18655,4.55944 4.90041,9.91647 0.728208,-0.6511 0.521739,-0.43864 1.22253,-1.36389 l 0.647676,-0.95438 c 4.69394,-7.32063 24.3281,-43.953798 29.2594,-52.938098 3.04219,-5.54209 7.946894,-13.3373 10.168304,-18.9942 -4.09852,1.86507 -7.859504,3.70786 -12.463504,0.427501 -3.45599,-2.46391 -4.281,-6.05098 -3.68559,-11.2529 l -2.56757,4.73935 c -0.777897,1.52067 -1.76141,3.30435 -2.63525,4.861 -1.98329,3.53138 -3.39516,5.87192 -5.18312,9.18398 -3.45342,6.39709 -7.11245,13.1223 -10.4691,18.9617 -3.10131,5.39559 -19.731,35.2667 -20.9938,38.384197 z"
       class="fil1"
       id="_348816104"
       style="fill:#464646;fill-opacity:1" /><path
       inkscape:connector-curvature="0"
       d="m 12.9475,181.544 c 0.567145,4.52602 10.3894,22.6661 14.3654,26.4065 1.50011,-2.68409 10.8452,-52.3307 11.5854,-58.8752 -1.41958,0.84558 -0.445492,0.27758 -1.54551,1.12315 -7.1253,5.47612 -15.1253,4.29471 -17.0512,-6.70465 l -7.35404,38.0501 z"
       class="fil1"
       id="_348816080"
       style="fill:#464646;fill-opacity:1" /><path
       inkscape:connector-curvature="0"
       d="m 25.166,134.21 c 9.97387,-1.46498 16.8773,2.43393 13.6894,13.3305 1.79053,-1.37331 11.7327,-15.2015 13.8077,-18.1564 0.893554,-1.27308 1.20026,-1.89248 2.10066,-3.12358 l 2.35597,-2.50246 c 0.107946,-0.0951 0.320411,-0.26815 0.490898,-0.3898 0.509745,-1.99358 1.63461,-3.09617 3.29235,-5.06061 -9.69116,3.47141 -17.2354,-0.20305 -15.3935,-11.6248 -2.44849,1.83937 -8.20304,10.3825 -10.3945,13.4461 -2.31313,3.23238 -8.60313,10.7338 -9.94903,14.08099 z"
       class="fil1"
       id="_348815648"
       style="fill:#464646;fill-opacity:1" /><path
       inkscape:connector-curvature="0"
       d="m 92.2613,8.01628 -2.12551,16.0985 c 0.190191,-0.116513 0.449775,-0.548297 0.53973,-0.394946 l 1.92846,-1.53438 c 0.7719,-0.612551 1.43585,-1.27565 2.7946,-1.78539 5.68088,-2.12894 14.0647,0.09767 12.819,11.5776 1.84022,-2.01499 0.94667,-2.2069 1.37845,-7.33262 l 2.75519,-18.302 c -0.0703,-4.23303 1.02891,-2.17606 -1.50439,-3.12358 -7.21183,1.00321 -12.5749,3.10131 -18.5856,4.79675 z"
       class="fil1"
       id="_348816032"
       style="fill:#464646;fill-opacity:1" /></g><circle
     id="_348815696"
     class="fil2 str0"
     cx="30.6068"
     cy="142.726"
     r="9.7513199" /><circle
     id="_348815720"
     class="fil2 str0"
     cx="54.366402"
     cy="110.287"
     r="9.7513199" /><circle
     id="_348815528"
     class="fil2 str0"
     cx="200.26801"
     cy="54.9884"
     r="9.7513199" /><circle
     id="_348819416"
     class="fil2 str0"
     cx="98.212196"
     cy="29.232201"
     r="9.7513199" /><circle
     id="_348819320"
     class="fil2 str0"
     cx="149.39799"
     cy="51.530899"
     r="9.7513199" /><circle
     id="_348818744"
     class="fil2 str0"
     cx="150.50301"
     cy="106.581"
     r="11.1091" /><circle
     id="_348819224"
     class="fil2 str0"
     cx="109.434"
     cy="182.37"
     r="10.2447" /><circle
     id="_284212968"
     class="fil2 str0"
     cx="220.63"
     cy="175.459"
     r="9.7513199" /><circle
     id="_285657120"
     class="fil2 str0"
     cx="230.504"
     cy="130.53"
     r="9.7513199" /></svg>