<?xml version="1.0" encoding="UTF-8" standalone="no"?>
<!-- Creator: CorelDRAW -->

<svg
   xmlns:dc="http://purl.org/dc/elements/1.1/"
   xmlns:cc="http://creativecommons.org/ns#"
   xmlns:rdf="http://www.w3.org/1999/02/22-rdf-syntax-ns#"
   xmlns:svg="http://www.w3.org/2000/svg"
   xmlns="http://www.w3.org/2000/svg"
   xmlns:sodipodi="http://sodipodi.sourceforge.net/DTD/sodipodi-0.dtd"
   xmlns:inkscape="http://www.inkscape.org/namespaces/inkscape"
   xml:space="preserve"
   width="19.0101mm"
   height="18.741mm"
   style="shape-rendering:geometricPrecision; text-rendering:geometricPrecision; image-rendering:optimizeQuality; fill-rule:evenodd; clip-rule:evenodd"
   viewBox="0 0 3.82648 3.77231"
   version="1.1"
   id="svg40"
   sodipodi:docname="logo-trackula-transparent.svg"
   inkscape:version="0.92+devel unknown"><metadata
     id="metadata44"><rdf:RDF><cc:Work
         rdf:about=""><dc:format>image/svg+xml</dc:format><dc:type
           rdf:resource="http://purl.org/dc/dcmitype/StillImage" /><dc:title /></cc:Work></rdf:RDF></metadata><sodipodi:namedview
     pagecolor="#ffffff"
     bordercolor="#666666"
     inkscape:document-rotation="0"
     borderopacity="1"
     objecttolerance="10"
     gridtolerance="10"
     guidetolerance="10"
     inkscape:pageopacity="0"
     inkscape:pageshadow="2"
     inkscape:window-width="1920"
     inkscape:window-height="1009"
     id="namedview42"
     showgrid="false"
     inkscape:zoom="4.9200841"
     inkscape:cx="6.7397586"
     inkscape:cy="27.321994"
     inkscape:window-x="0"
     inkscape:window-y="34"
     inkscape:window-maximized="1"
     inkscape:current-layer="svg40" /><defs
     id="defs4"><style
       type="text/css"
       id="style2"><![CDATA[
    .str0 {stroke:#E6E7E8;stroke-width:0.0402573}
    .fil0 {fill:#4B4B4D}
    .fil2 {fill:#E6E7E8}
    .fil1 {fill:#7C7C7C}
   ]]></style></defs><path
     id="path9"
     d="M 1.9998,0.770162 C 1.99775,0.6782948 2.01393,0.610944 2.096639,0.591782 2.28148,0.5489281 2.326226,0.810198 2.177295,0.857722 2.064031,0.8938731 2.026109,0.8102788 1.995795,0.7825012 c 0.0027,0.127656 0.042874,0.676202 -0.00598,0.736125 -0.024537,0.073409 -0.402915,0.709152 -0.482282,0.853616 -0.024315,0.044263 -0.049456,0.077435 -0.074255,0.126348 0.050302,-0.020632 0.096577,-0.058373 0.171738,-0.022846 0.04378,0.020712 0.08132,0.072383 0.074778,0.140941 -0.00729,0.076408 -0.097745,0.184217 -0.243114,0.078924 -0.016606,-0.012037 -3.221e-4,-0.00284 -0.024416,-0.016425 0.046578,0.178279 0.088868,0.363 0.130876,0.544077 l 0.093759,0.39736 c 0.014674,0.064854 0.00862,0.077737 0.041566,0.110365 l 0.01256,0.010487 c 0.057447,0 0.060366,0.00942 0.114834,0.011051 C 1.853685,3.7539742 1.905174,3.752182 1.953422,3.752182 1.9349858,3.613979 1.7931796,3.069197 1.7432406,2.863563 1.7235548,2.7825251 1.672428,2.645529 1.7102497,2.574958 1.7992187,2.408937 2.2024957,1.743806 2.2420887,1.640365 2.1789857,1.659306 2.1347027,1.680059 2.0708547,1.635395 2.0251427,1.603411 1.9995587,1.551539 2.0246797,1.474205 2.0474457,1.404077 2.1533417,1.312914 2.2815617,1.458646 l 0.011876,0.012802 -0.00322,-0.107366 C 2.2590578,0.93851963 2.2882242,0.48341063 2.2554346,0.05750963 2.2413445,0.04827058 2.255958,0.05529548 2.232347,0.0489147 2.1767919,0.0338786 2.038065,0.0253843 1.978062,0.0253843 l 0.013023,0.567588 c 0.0028,0.121315 -0.019605,0.130293 0.00872,0.177192 z"
     class="fil1"
     inkscape:connector-curvature="0" /><path
     id="path11"
     d="M 2.70487,0.760259 2.718779,0.7354202 C 2.740961,0.6938143 2.760828,0.650739 2.844885,0.6501351 3.05215,0.6486661 3.011792,0.9769441 2.806822,0.9217111 2.7898733,0.9171419 2.7805537,0.911365 2.7695232,0.9046823 L 2.7340968,0.8795416 c 0.032186,0.0923301 0.163787,0.359779 0.168577,0.425399 0.027355,0.0251 0.193074,0.439791 0.223207,0.507745 0.041646,0.09388 -0.0067,0.196838 -0.03134,0.295167 -0.024195,0.096617 -0.050744,0.199213 -0.076308,0.296314 0.044243,-0.025684 0.096356,-0.071074 0.169966,-0.044384 0.053301,0.019344 0.099194,0.069001 0.087137,0.150421 -0.013547,0.091424 -0.131762,0.204406 -0.269281,0.038929 -0.00119,-0.00145 -0.00348,-0.00447 -0.00548,-0.00646 l -0.00326,0.803012 c 0.00399,0.027576 -0.00455,-0.00711 0.00435,0.019666 0.00902,0.027194 -0.0025,0.00733 0.014573,0.025805 0.026228,-0.010729 0.109842,-0.080575 0.13605,-0.102616 0.035829,-0.030133 0.098449,-0.089834 0.119806,-0.125361 0.036614,-0.175763 -0.016264,-0.470125 0.016505,-0.663762 0.026449,-0.156158 0.086432,-0.392549 0.13448,-0.543755 -0.044887,0.028019 -0.091364,0.069001 -0.166424,0.047081 -0.11731,-0.034239 -0.133996,-0.210083 -0.013003,-0.261652 0.069565,-0.02967 0.121396,0.00596 0.167692,0.029468 l -0.219463,-0.524271 c -0.053583,-0.096497 -0.116887,-0.267892 -0.162015,-0.377291 -0.046457,-0.1126 -0.041062,-0.103562 -0.022685,-0.232627 0.010668,-0.0749993 0.02967,-0.163626 0.030495,-0.236169 -0.026147,-0.0356076 -0.198489,-0.137418 -0.249052,-0.160647 l -0.083755,0.520708 z"
     class="fil1"
     inkscape:connector-curvature="0" /><g
     id="g4289"><path
       inkscape:connector-curvature="0"
       class="fil1"
       d="M 0.686528,1.46229 C 0.7370308,1.441759 0.794699,1.417343 0.853998,1.448522 0.9024678,1.473985 0.9276286,1.513236 0.9235626,1.589262 0.9339087,1.580022 0.9309696,1.583042 0.9409135,1.569918 L 0.9501125,1.556371 C 1.0167383,1.452447 1.2954395,0.932463 1.3654265,0.804948 1.4086225,0.7262651 1.4782275,0.615638 1.5097695,0.535325 1.4515775,0.5617942 1.3981965,0.5879614 1.3328585,0.541384 1.2837845,0.5064205 1.2720905,0.4555152 1.2805445,0.381663 l -0.036453,0.0672699 c -0.011051,0.021598 -0.025,0.0469199 -0.037399,0.069001 -0.02816,0.0501405 -0.048188,0.0833527 -0.07357,0.130373 -0.049033,0.0908003 -0.100965,0.18625 -0.14861,0.26914 -0.0440214,0.0765895 -0.28007,0.5006 -0.297985,0.544842 z"
       id="path13" /><path
       inkscape:connector-curvature="0"
       class="fil1"
       d="M 0.191746,2.58488 C 0.199818,2.64911 0.339229,2.906616 0.395649,2.959696 0.4169652,2.921592 0.549593,2.216888 0.5601,2.123995 0.5399512,2.136012 0.55378,2.127945 0.5381598,2.139937 0.4370338,2.217674 0.3234878,2.200907 0.2961328,2.044769 Z"
       id="path15" /><path
       inkscape:connector-curvature="0"
       class="fil1"
       d="M 0.365194,1.91299 C 0.506759,1.8921971 0.604745,1.9475509 0.559496,2.102219 0.5849185,2.0827143 0.72604,1.88644 0.755489,1.844492 0.76817,1.8264165 0.772538,1.8176404 0.7853197,1.8001687 l 0.0334337,-0.035527 c 0.00153,-0.00135 0.004549,-0.0038 0.006965,-0.00554 0.007246,-0.028301 0.0232083,-0.043941 0.0467387,-0.071839 -0.137559,0.049275 -0.244664,-0.00288 -0.218496,-0.165015 -0.0347622,0.026127 -0.116444,0.147382 -0.147543,0.19088 -0.0328298,0.045873 -0.122121,0.152354 -0.141223,0.199857 z"
       id="path17" /><path
       inkscape:connector-curvature="0"
       class="fil1"
       d="m 1.31758,0.121758 -0.030173,0.2285 c 0.0027,-0.001651 0.00638,-0.00777 0.00765,-0.005596 L 1.322432,0.3228828 C 1.333382,0.3141868 1.342802,0.304767 1.362106,0.2975408 1.442741,0.2673076 1.561742,0.2989298 1.544069,0.4618708 1.570176,0.433268 1.557495,0.4305506 1.563634,0.3577858 l 0.03911,-0.25978 C 1.6017363,0.03792204 1.617336,0.06710854 1.5813661,0.05366264 1.4790121,0.06791374 1.4028851,0.09768404 1.31758,0.121758 Z"
       id="path19" /></g><ellipse
     id="circle21"
     cy="2.03388"
     cx="0.44241801"
     class="fil2 str0"
     r="0.138414" /><ellipse
     id="circle23"
     cy="1.5734299"
     cx="0.77967101"
     class="fil2 str0"
     r="0.138414" /><ellipse
     id="circle25"
     cy="0.78849697"
     cx="2.8506601"
     class="fil2 str0"
     r="0.138414" /><ellipse
     id="circle27"
     cy="0.422903"
     cx="1.40204"
     class="fil2 str0"
     r="0.138414" /><ellipse
     id="circle29"
     cy="0.73942101"
     cx="2.1285801"
     class="fil2 str0"
     r="0.138414" /><ellipse
     id="circle31"
     cy="1.52083"
     cx="2.14428"
     class="fil2 str0"
     r="0.15768699" /><ellipse
     id="circle33"
     cy="2.5966001"
     cx="1.5613199"
     class="fil2 str0"
     r="0.145418" /><ellipse
     id="circle35"
     cy="2.4985099"
     cx="3.1396799"
     class="fil2 str0"
     r="0.138414" /><ellipse
     id="circle37"
     cy="1.86076"
     cx="3.27985"
     class="fil2 str0"
     r="0.138414" /></svg>