<?xml version="1.0" encoding="UTF-8"?>
<!DOCTYPE svg PUBLIC "-//W3C//DTD SVG 1.1//EN" "http://www.w3.org/Graphics/SVG/1.1/DTD/svg11.dtd">
<!-- Creator: CorelDRAW -->
<svg xmlns="http://www.w3.org/2000/svg" xml:space="preserve" width="19.0101mm" height="18.741mm" style="shape-rendering:geometricPrecision; text-rendering:geometricPrecision; image-rendering:optimizeQuality; fill-rule:evenodd; clip-rule:evenodd"
viewBox="0 0 3.82648 3.77231"
 xmlns:xlink="http://www.w3.org/1999/xlink">
 <defs>
  <style type="text/css">
   <![CDATA[
    .str0 {stroke:#E6E7E8;stroke-width:0.0402573}
    .fil0 {fill:#4B4B4D}
    .fil2 {fill:#E6E7E8}
    .fil1 {fill:#7C7C7C}
   ]]>
  </style>
 </defs>
 <g id="Capa_x0020_1">
  <metadata id="CorelCorpID_0Corel-Layer"/>
  <ellipse class="fil0 str0" cx="1.91324" cy="1.88616" rx="1.89311" ry="1.86603"/>
  <path class="fil1" d="M1.9998 0.770162c-0.00205312,-0.0918672 0.0141303,-0.159218 0.0968389,-0.17838 0.184841,-0.0428539 0.229587,0.218416 0.0806555,0.26594 -0.113264,0.0361511 -0.151186,-0.0474432 -0.1815,-0.0752208 0.00269724,0.127656 0.042874,0.676202 -0.00597821,0.736125 -0.0245368,0.0734092 -0.402915,0.709152 -0.482282,0.853616 -0.0243154,0.0442629 -0.0494561,0.0774349 -0.0742546,0.126348 0.0503015,-0.0206319 0.0965773,-0.0583731 0.171738,-0.022846 0.0437798,0.0207124 0.0813197,0.0723826 0.0747779,0.140941 -0.00728657,0.0764084 -0.0977447,0.184217 -0.243114,0.0789244 -0.0166061,-0.0120369 -0.000322058,-0.00283814 -0.0244161,-0.016425 0.0465777,0.178279 0.088868,0.363 0.130876,0.544077l0.0937592 0.39736c0.0146738,0.0648545 0.00861506,0.0777368 0.0415657,0.110365l0.0125603 0.010487c0.0574472,0 0.0603658,0.00942021 0.114834,0.0110506 0.0478257,0.00144926 0.0993148,-0.000342187 0.147563,-0.000342187 -0.0184378,-0.138203 -0.160244,-0.682985 -0.210183,-0.888619 -0.0196858,-0.0810379 -0.0708126,-0.218034 -0.0329909,-0.288605 0.0889686,-0.166021 0.492246,-0.831152 0.531839,-0.934593 -0.0631033,0.0189411 -0.107386,0.0396937 -0.171234,-0.00497178 -0.0457122,-0.0319844 -0.0712957,-0.083856 -0.0461751,-0.16119 0.0227655,-0.0701282 0.128662,-0.161291 0.256882,-0.0155594l0.0118759 0.0128018 -0.00322058 -0.107366c-0.0311591,-0.42556 -0.00199274,-0.880669 -0.0347823,-1.30657 -0.0140901,-0.00923905 0.000523345,-0.00221415 -0.0230876,-0.00859493 -0.0555551,-0.0150361 -0.194282,-0.0235304 -0.254285,-0.0235304l0.0130232 0.567588c0.00279788,0.121315 -0.0196053,0.130293 0.00871571,0.177192z"/>
  <path class="fil1" d="M2.70487 0.760259l0.0139089 -0.0248388c0.0221818,-0.0416059 0.0420487,-0.0846812 0.126106,-0.0852851 0.207265,-0.00146939 0.166907,0.326809 -0.0380633,0.271576 -0.0169483,-0.0045692 -0.0262679,-0.0103461 -0.0372984,-0.0170288l-0.0354264 -0.0251407c0.0321857,0.0923301 0.163787,0.359779 0.168577,0.425399 0.0273548,0.0251004 0.193074,0.439791 0.223207,0.507745 0.0416462,0.09388 -0.00670284,0.196838 -0.0313403,0.295167 -0.0241946,0.0966175 -0.0507443,0.199213 -0.0763077,0.296314 0.0442428,-0.0256842 0.0963558,-0.0710743 0.169966,-0.0443837 0.0533007,0.0193436 0.099194,0.069001 0.0871369,0.150421 -0.0135466,0.0914243 -0.131762,0.204406 -0.269281,0.0389288 -0.00118759,-0.00144926 -0.00348226,-0.00446856 -0.00547499,-0.0064613l-0.00326084 0.803012c0.00398547,0.0275762 -0.00454907,-0.00710541 0.00434779,0.0196657 0.00901763,0.0271938 -0.00249595,0.00732683 0.0145731,0.0258049 0.0262276,-0.0107286 0.109842,-0.080575 0.13605,-0.102616 0.035829,-0.0301326 0.0984492,-0.0898342 0.119806,-0.125361 0.036614,-0.175763 -0.0162639,-0.470125 0.0165055,-0.663762 0.026449,-0.156158 0.0864324,-0.392549 0.13448,-0.543755 -0.0448869,0.0280191 -0.0913639,0.069001 -0.166424,0.0470809 -0.11731,-0.0342388 -0.133996,-0.210083 -0.0130031,-0.261652 0.0695646,-0.0296696 0.121396,0.00595808 0.167692,0.0294683l-0.219463 -0.524271c-0.0535825,-0.0964967 -0.116887,-0.267892 -0.162015,-0.377291 -0.0464569,-0.1126 -0.0410624,-0.103562 -0.022685,-0.232627 0.0106682,-0.0749993 0.0296696,-0.163626 0.0304949,-0.236169 -0.0261471,-0.0356076 -0.198489,-0.137418 -0.249052,-0.160647l-0.0837553 0.520708z"/>
  <path class="fil1" d="M0.686528 1.46229c0.0505028,-0.0205312 0.108171,-0.0449473 0.16747,-0.013768 0.0484698,0.0254627 0.0736306,0.0647136 0.0695646,0.14074 0.0103461,-0.00923905 0.00740734,-0.00621975 0.0173509,-0.0193436l0.00919879 -0.0135466c0.0666258,-0.103924 0.345327,-0.623908 0.415314,-0.751423 0.0431961,-0.0786829 0.112801,-0.18931 0.144343,-0.269623 -0.0581919,0.0264692 -0.111573,0.0526364 -0.176911,0.00605872 -0.0490736,-0.0349635 -0.0607684,-0.0858688 -0.0523144,-0.159721l-0.036453 0.0672699c-0.0110506,0.021598 -0.0249998,0.0469199 -0.037399,0.069001 -0.02816,0.0501405 -0.048188,0.0833527 -0.0735702,0.130373 -0.0490334,0.0908003 -0.100965,0.18625 -0.14861,0.26914 -0.0440214,0.0765895 -0.28007,0.5006 -0.297985,0.544842z"/>
  <path class="fil1" d="M0.191746 2.58488c0.00807159,0.0642305 0.147483,0.321736 0.203903,0.374816 0.0213162,-0.0381035 0.153944,-0.742808 0.164451,-0.835701 -0.0201488,0.0120168 -0.0063204,0.00394522 -0.0219402,0.0159419 -0.101126,0.0777368 -0.214672,0.0609697 -0.242027,-0.0951683l-0.104387 0.540112z"/>
  <path class="fil1" d="M0.365194 1.91299c0.141565,-0.0207929 0.239551,0.0345609 0.194302,0.189229 0.0254225,-0.0195047 0.166544,-0.215779 0.195993,-0.257727 0.012681,-0.0180755 0.017049,-0.0268516 0.0298307,-0.0443233l0.0334337 -0.0355271c0.00152978,-0.00134862 0.00454907,-0.00380431 0.00696451,-0.00553538 0.00724631,-0.0283009 0.0232083,-0.0439408 0.0467387,-0.0718391 -0.137559,0.0492749 -0.244664,-0.0028784 -0.218496,-0.165015 -0.0347622,0.026127 -0.116444,0.147382 -0.147543,0.19088 -0.0328298,0.0458732 -0.122121,0.152354 -0.141223,0.199857z"/>
  <path class="fil1" d="M1.31758 0.121758l-0.0301728 0.2285c0.00269724,-0.00165055 0.00638078,-0.00776966 0.00764889,-0.00559576l0.027375 -0.0217792c0.01095,-0.00869558 0.0203702,-0.0181158 0.0396736,-0.025342 0.0806354,-0.0302332 0.199636,0.00138888 0.181963,0.16433 0.0261069,-0.0286028 0.0134258,-0.0313202 0.019565,-0.104085l0.03911 -0.25978c-0.00100643,-0.060084 0.0145933,-0.0308975 -0.0213766,-0.0443434 -0.102354,0.0142511 -0.178481,0.0440214 -0.263786,0.0680952z"/>
  <circle class="fil2 str0" cx="0.442418" cy="2.03388" r="0.138414"/>
  <circle class="fil2 str0" cx="0.779671" cy="1.57343" r="0.138414"/>
  <circle class="fil2 str0" cx="2.85066" cy="0.788497" r="0.138414"/>
  <circle class="fil2 str0" cx="1.40204" cy="0.422903" r="0.138414"/>
  <circle class="fil2 str0" cx="2.12858" cy="0.739421" r="0.138414"/>
  <circle class="fil2 str0" cx="2.14428" cy="1.52083" r="0.157687"/>
  <circle class="fil2 str0" cx="1.56132" cy="2.5966" r="0.145418"/>
  <circle class="fil2 str0" cx="3.13968" cy="2.49851" r="0.138414"/>
  <circle class="fil2 str0" cx="3.27985" cy="1.86076" r="0.138414"/>
 </g>
</svg>
